<svg version="1.1" id="Layer_1" xmlns="http://www.w3.org/2000/svg" xmlns:xlink="http://www.w3.org/1999/xlink" x="0px" y="0px"
	 width="100%" viewBox="0 0 1024 1024" enable-background="new 0 0 1024 1024" xml:space="preserve">
<path fill="#000000" opacity="1.000000" stroke="none" 
	d="
M210.538452,380.664337 
	C213.242935,359.275360 219.104355,339.212158 227.464722,319.879333 
	C247.009552,274.683167 278.857727,239.752518 318.423218,211.313324 
	C320.462585,209.847443 322.552368,208.469849 323.823700,206.217819 
	C329.424011,196.297607 338.490051,191.551376 349.308441,191.117004 
	C357.172638,190.801224 364.141479,188.689590 371.310547,185.858627 
	C406.914520,171.799164 443.971161,164.534225 482.165283,162.435730 
	C519.866028,160.364319 556.663940,164.619995 592.057983,177.959427 
	C627.081055,191.159088 655.002441,214.262695 678.837952,242.634628 
	C681.016357,245.227631 683.111511,247.050858 686.771301,246.669083 
	C711.008545,244.140686 734.631592,247.620010 757.724121,254.762207 
	C794.817993,266.234802 825.161499,287.018768 845.644775,320.651733 
	C857.502747,340.122375 862.274292,361.310303 857.990845,383.884796 
	C854.013611,404.844879 841.518677,420.177673 824.242554,432.099274 
	C808.645264,442.862457 791.363342,449.686127 773.082642,453.888824 
	C767.584473,455.152863 765.374634,457.538544 765.309753,462.756927 
	C765.292114,464.178558 765.573120,465.755951 764.005981,467.194275 
	C762.092285,465.618286 762.311279,463.254944 761.833679,461.394623 
	C760.935730,457.897156 758.946228,456.942596 755.608032,457.384918 
	C752.321350,457.820404 751.225891,459.542450 751.127380,462.757263 
	C750.793457,473.648010 748.255493,484.178619 745.260803,494.586884 
	C744.492126,497.258392 744.785950,499.404785 746.386658,501.573273 
	C751.034912,507.870270 753.896240,515.167297 756.941833,521.968994 
	C759.917603,521.981140 761.246948,520.284973 762.881897,519.220581 
	C773.766541,512.134460 785.081177,511.646545 796.544434,517.423523 
	C810.483765,524.448303 815.408142,544.278931 807.186829,559.300049 
	C797.873352,576.316528 778.830811,583.358398 760.743652,576.485901 
	C760.296692,576.316101 759.797119,576.284607 759.088318,576.141418 
	C757.215271,579.827576 755.368530,583.515869 753.474609,587.179749 
	C746.930786,599.839722 737.141296,609.380798 724.895996,616.430725 
	C722.443787,617.842590 721.483154,619.371216 721.206299,622.221436 
	C718.230225,652.857422 704.229065,677.866455 681.840332,698.527222 
	C664.561157,714.472900 644.518738,725.737793 621.645630,733.676453 
	C625.730286,736.691895 630.083923,738.086670 633.331360,741.100464 
	C634.062378,741.778870 634.833130,742.438049 635.669312,742.976074 
	C645.824585,749.510559 648.138550,758.688721 645.945129,770.171143 
	C642.633179,787.509399 634.917664,802.509888 623.788635,815.960571 
	C623.296265,816.555603 622.789307,817.138550 622.521179,817.903442 
	C634.867920,807.653564 644.947510,795.840454 649.000366,779.783875 
	C649.710815,776.969238 649.576416,774.174744 649.779480,771.363770 
	C650.115112,766.717529 651.483887,765.952576 655.330872,768.425049 
	C662.382690,772.957275 668.747681,778.251465 673.759766,785.085938 
	C676.218018,788.438049 678.926880,791.616394 681.653931,794.759216 
	C686.917297,800.824951 686.934082,804.347839 681.305298,810.306030 
	C669.585205,822.712402 655.453308,831.775146 640.278198,839.251770 
	C618.032776,850.211975 594.468933,857.247620 570.183044,861.923706 
	C564.556152,863.007141 559.266907,862.309326 553.866760,859.371582 
	C506.621124,833.669312 456.214966,817.064148 403.177094,808.620605 
	C371.498291,803.577393 339.586182,802.269043 307.581604,805.393555 
	C304.770905,805.667969 301.997681,806.419006 299.186310,806.574951 
	C292.801178,806.929016 290.171844,803.189819 292.770142,797.387024 
	C296.190765,789.747803 300.713196,782.762756 305.992157,776.268250 
	C307.464417,774.456909 308.559540,772.826416 308.054413,770.030762 
	C303.505341,744.854187 316.597473,722.699341 340.986816,713.978943 
	C349.376984,710.979065 357.937500,709.240112 366.933807,710.554932 
	C368.845123,710.834351 370.904968,711.057861 373.442902,709.948425 
	C371.388031,693.922119 358.482697,685.371460 348.735931,673.820312 
	C347.760010,678.585754 349.053253,682.923767 347.501984,688.174316 
	C340.036926,677.701294 333.154297,668.045349 325.388123,657.149841 
	C326.331787,663.834290 327.080475,669.137329 327.829132,674.440430 
	C327.325226,674.675232 326.821350,674.910034 326.317444,675.144897 
	C322.325745,669.766724 318.081787,664.554810 314.401581,658.971313 
	C308.904816,650.631714 303.757263,642.059509 298.561310,633.525269 
	C296.620789,630.338013 293.326721,628.965820 290.454224,627.078552 
	C274.337677,616.490479 261.839661,602.730286 253.539185,585.280518 
	C249.655014,577.114990 247.055145,568.497009 245.793839,559.558105 
	C245.381882,556.638672 244.281967,555.048096 241.569275,554.182739 
	C236.203964,552.471069 232.539673,548.885742 229.963013,543.869568 
	C226.007126,536.168335 222.242920,528.301147 217.523834,521.074890 
	C210.101471,509.709167 208.232956,497.850525 211.815704,484.875488 
	C212.918793,480.880615 213.110184,476.626709 214.293076,472.662750 
	C216.258347,466.077026 214.470016,459.837708 213.160950,453.548523 
	C208.372330,430.542847 207.440506,407.363892 209.809814,384.021942 
	C209.909683,383.037872 210.251038,382.078278 210.538452,380.664337 
M432.439850,781.497864 
	C449.940582,793.354675 469.558655,801.042725 488.462738,810.145874 
	C478.808197,804.300781 469.061493,798.636230 459.170044,793.236938 
	C450.436157,788.469543 442.557922,781.730652 431.562408,780.497986 
	C428.929474,777.618042 425.694824,775.643799 422.153046,774.070496 
	C402.769012,765.459900 382.530487,761.627930 361.357513,763.451294 
	C356.574036,763.863281 351.863586,765.123779 347.119537,765.993713 
	C388.183563,766.767273 388.187042,766.757324 426.137512,779.970764 
	C428.068787,780.643188 430.000580,780.922485 432.439850,781.497864 
M488.274689,769.196106 
	C494.242004,774.000916 500.240448,778.752075 505.945282,783.890625 
	C518.452393,795.156372 529.756348,807.690857 542.665222,818.523315 
	C545.350647,820.776855 547.995605,823.304565 551.715210,823.460144 
	C563.211670,823.940857 573.403320,820.448730 581.827881,812.557190 
	C585.127625,809.466248 587.333130,805.169861 585.324036,800.794556 
	C581.548279,792.571533 573.780640,788.181274 566.490845,781.587769 
	C565.955322,785.684265 565.555176,788.129761 565.337341,790.591309 
	C565.133911,792.888916 564.843750,795.203064 561.878418,795.055725 
	C559.026245,794.914062 558.667236,792.617310 558.639221,790.314087 
	C558.622986,788.981140 558.691223,787.645081 558.623901,786.315308 
	C558.082214,775.619263 560.617859,765.122742 560.672913,754.464905 
	C560.685425,752.048157 560.751953,749.690369 557.716675,748.933716 
	C547.168945,746.304565 537.582397,740.991089 527.330750,737.729065 
	C512.324768,732.954163 498.820862,725.803894 486.486298,716.205139 
	C485.515228,715.449463 483.985901,715.071594 484.132111,713.292114 
	C485.740631,712.365723 487.032990,713.524658 488.303558,714.061157 
	C506.324280,721.670166 524.965271,727.095825 544.275696,730.247437 
	C560.651672,732.920105 577.135986,733.502930 593.538452,731.330444 
	C612.331421,728.841309 630.263000,723.053223 646.847473,713.784973 
	C673.389893,698.951721 695.207581,679.512634 706.200378,650.138855 
	C709.510559,641.293762 712.509155,632.313965 711.573303,622.009338 
	C676.858337,629.094177 648.138611,620.303284 627.422302,590.571289 
	C620.631897,600.317810 615.772583,604.926025 610.098755,606.990906 
	C610.524841,603.154968 611.948669,599.854736 613.530579,596.620544 
	C615.360229,592.879883 617.337830,589.210938 619.138428,585.456726 
	C620.766235,582.062683 621.457825,578.450500 620.435974,574.763245 
	C618.622314,568.218567 609.292053,561.373718 601.268677,560.527527 
	C594.152039,559.776978 585.818237,564.584595 582.498230,571.355835 
	C564.849121,607.352234 532.444458,625.080322 492.619232,620.420776 
	C457.873138,616.355591 433.055847,598.974609 420.136993,565.896423 
	C419.231903,563.578979 418.053741,562.521545 415.569733,562.114319 
	C409.018066,561.040283 402.744171,558.678589 398.576294,553.409241 
	C392.558594,545.801208 384.162842,542.421265 375.706543,538.988403 
	C372.260620,537.589539 368.956329,535.427795 364.258240,535.823425 
	C364.580078,545.157410 362.027802,554.458374 366.671234,563.295410 
	C367.577148,565.019409 368.190308,566.730408 366.446716,568.274170 
	C364.778473,569.751221 363.026337,569.186646 361.358093,568.230225 
	C359.275177,567.036072 357.963501,565.096130 356.564270,563.218079 
	C349.797638,554.135803 342.846283,545.182312 337.999451,534.839539 
	C337.228607,533.194641 336.299408,531.410278 333.606323,533.068604 
	C334.838440,536.683411 337.986969,539.677368 337.815308,544.250977 
	C334.049805,542.966309 332.196930,540.080688 329.982452,537.744812 
	C321.902374,529.221680 313.024933,521.766418 302.573456,516.272949 
	C279.936188,504.374664 258.282227,515.224182 254.077225,540.427429 
	C252.390594,550.536377 253.512833,560.355408 256.311249,570.015259 
	C263.928375,596.308899 281.333588,614.300476 305.196747,626.531860 
	C320.105316,634.173523 335.599182,640.240601 352.651947,640.616394 
	C361.956177,640.821533 364.629242,638.220459 365.907806,629.156372 
	C365.968201,628.728271 366.338165,628.343750 366.607208,627.861511 
	C367.166260,627.989197 367.820435,627.935242 368.055786,628.223389 
	C370.896057,631.700562 373.981659,635.028564 376.418030,638.776001 
	C390.161865,659.915833 407.863312,676.592712 430.665436,687.651428 
	C431.650940,688.129333 432.920990,688.445740 433.022858,690.704834 
	C415.052612,686.073181 399.019592,678.354126 384.994965,666.261108 
	C388.749908,681.373352 391.689972,696.185547 391.353668,711.469666 
	C391.293060,714.224426 393.187653,715.167847 395.372253,715.823608 
	C415.061523,721.734619 432.640045,731.708557 449.484558,743.302185 
	C462.092133,751.979736 475.838928,758.962952 488.274689,769.196106 
M739.109253,380.747223 
	C752.336304,399.164337 762.969604,418.736481 765.894409,441.665039 
	C766.355164,445.277222 767.854858,445.902161 771.256409,445.108215 
	C786.124023,441.638153 800.272217,436.437469 813.374939,428.526581 
	C849.359741,406.800415 860.274170,370.879303 842.259766,333.034943 
	C832.148926,311.794098 816.236816,295.585999 796.697021,283.080292 
	C750.296326,253.383347 700.187805,248.405853 647.596924,262.029358 
	C641.548950,263.596039 635.659546,264.602478 629.381470,263.576019 
	C625.226685,262.896698 620.859741,262.226379 616.129395,264.288574 
	C621.355225,267.459137 627.254578,266.059692 632.112793,268.525330 
	C631.367737,270.431671 629.833191,270.454956 628.673340,270.864716 
	C599.122070,281.305481 570.561340,294.198273 541.957458,306.862000 
	C503.440430,323.914612 465.557739,342.395050 427.292084,360.022339 
	C406.137848,369.767120 385.319824,380.514923 362.504700,386.046112 
	C337.066223,392.213287 314.398285,403.470428 294.858795,420.967987 
	C290.443420,424.921906 285.618958,424.237823 282.109955,419.400360 
	C280.217163,416.791016 279.265137,413.752869 278.687225,410.624268 
	C276.529053,398.941345 277.334259,387.375214 280.784973,376.077209 
	C289.634583,347.102600 307.359833,327.053406 338.190155,321.320343 
	C351.887115,318.773285 365.353821,321.874359 378.553284,325.744415 
	C380.823547,326.410004 383.153900,327.735931 385.348694,325.882629 
	C384.857056,319.297882 375.849854,323.742981 375.102295,317.972687 
	C376.244751,315.599243 378.898071,317.449371 380.205597,315.093384 
	C360.392822,279.296265 348.133545,241.608582 357.305573,199.179901 
	C348.169037,199.948105 338.816925,198.692780 333.760071,206.672150 
	C328.737244,214.597855 321.748016,219.864151 314.718170,225.393555 
	C296.335815,239.852448 278.894897,255.305588 264.616730,273.969971 
	C247.318085,296.582672 235.491440,321.987640 226.756317,348.958191 
	C216.973602,379.163239 215.939102,409.935730 219.786057,441.210968 
	C221.182755,452.565826 227.144165,461.998138 230.781631,472.390839 
	C231.690765,474.988312 232.448822,477.780640 234.943909,479.889374 
	C238.306030,474.610779 241.481842,469.386322 244.898804,464.324677 
	C248.580490,458.870972 254.504745,453.946716 247.861084,446.731720 
	C247.132278,445.940247 247.055374,444.395172 248.234894,443.583893 
	C249.781067,442.520416 250.597275,443.875763 251.527802,444.814606 
	C252.990952,446.290802 253.329407,448.860809 256.041779,449.379944 
	C256.495239,449.051544 257.036102,448.692017 257.541351,448.287903 
	C259.000397,447.121002 260.308441,444.567047 262.445740,446.566986 
	C264.405212,448.400604 262.385681,450.250336 261.338531,451.832489 
	C258.213501,456.554230 254.890350,461.146454 251.821381,465.903320 
	C245.121170,476.288483 238.828522,486.904755 236.650391,499.319977 
	C235.954147,503.288483 235.866562,507.363770 235.500488,511.390198 
	C231.584488,506.614136 230.036026,501.059814 230.988052,495.614258 
	C232.479935,487.080902 226.364380,482.007416 223.430008,475.325104 
	C220.773361,483.873535 218.624695,492.345367 218.300369,501.155090 
	C218.247879,502.580597 218.610428,504.231689 219.339096,505.442810 
	C225.964417,516.454590 230.917267,528.326416 237.063492,539.577881 
	C238.008102,541.307190 238.656158,543.660645 242.066147,543.843445 
	C241.940735,534.980103 244.987778,526.695618 244.779282,518.024475 
	C244.516541,507.095734 247.173996,496.936737 252.166046,487.299011 
	C259.040314,474.027344 268.214966,462.505768 278.286560,451.508545 
	C303.034821,424.485718 332.703979,405.873627 368.413391,397.074707 
	C376.489349,395.084717 384.605560,393.047729 392.213501,389.600769 
	C413.602661,379.909851 435.064148,370.362213 456.244781,360.230438 
	C511.847198,333.633148 567.829224,307.906647 624.990845,284.802612 
	C641.274475,278.220947 658.060974,273.543060 675.413086,270.905548 
	C677.841431,270.536438 680.887695,270.010254 681.416138,273.513550 
	C681.841980,276.337036 679.397400,276.988983 677.131287,277.267029 
	C659.303528,279.454163 642.510376,285.429840 625.793823,291.548218 
	C616.812927,294.835297 608.098572,298.850708 599.263977,302.537476 
	C650.257385,302.091675 696.783508,315.712494 739.571350,342.609558 
	C732.977783,343.999725 726.934570,340.785583 719.952576,340.985107 
	C738.569458,355.522858 756.837830,369.675903 778.455139,379.061676 
	C764.474670,383.464050 751.017517,380.096832 736.809204,377.226624 
	C737.869629,378.837402 738.320618,379.522461 739.109253,380.747223 
M472.838226,403.234100 
	C461.592316,420.384613 447.846252,434.845032 428.123260,445.201080 
	C433.714417,427.079071 437.990234,410.205536 436.039612,392.256866 
	C429.036499,415.957092 418.970428,437.851471 401.670898,456.671631 
	C400.872467,452.871826 402.352631,450.122955 402.652679,447.253571 
	C402.980896,444.114899 403.353485,440.979950 403.767639,437.851410 
	C404.160248,434.885559 404.474792,431.895844 405.111694,428.979523 
	C405.776978,425.933167 405.436462,423.069855 404.436005,419.489777 
	C399.674316,437.100159 393.171936,453.164642 383.300812,467.857178 
	C380.339203,459.422424 379.869781,450.894714 379.380463,441.711670 
	C376.450134,444.007019 376.540741,446.644989 375.942993,448.931946 
	C371.941986,464.239960 369.003906,479.745758 367.217285,495.475708 
	C366.731567,499.752197 368.351868,501.407410 372.608734,501.840759 
	C378.056274,502.395325 383.485413,503.504700 388.612122,505.571289 
	C392.087372,506.972198 394.663635,506.447784 397.503052,503.693207 
	C404.841675,496.573914 413.794006,493.820282 423.699158,496.845123 
	C428.880371,498.427399 431.475220,496.692535 434.444580,492.727783 
	C452.135040,469.107483 475.468384,456.256439 505.409851,456.583435 
	C534.269470,456.898560 557.133301,468.627045 573.557373,492.546265 
	C577.148315,497.776001 580.306274,503.257172 583.051758,508.965485 
	C584.282166,511.523743 585.709167,512.654236 588.868347,512.149780 
	C595.630493,511.069885 602.544067,511.242493 609.312317,511.879181 
	C614.260193,512.344604 616.618591,510.549774 618.353455,506.273468 
	C620.299072,501.477783 623.317566,497.235352 626.490845,493.143188 
	C643.927429,470.657318 682.056396,458.925659 713.184204,473.429077 
	C715.009583,474.279633 716.745239,476.058075 719.839844,474.675812 
	C719.329407,445.484467 713.613525,417.480347 699.231445,391.387421 
	C700.787109,407.274963 701.529785,422.927032 693.139282,437.560089 
	C691.705261,419.356323 689.292358,401.633423 677.292664,385.304169 
	C678.936951,402.738129 679.321411,418.665436 672.785828,433.995605 
	C664.284546,408.409760 652.897522,384.713226 633.862854,365.205322 
	C635.442078,374.904541 637.752930,384.367523 638.702148,394.064423 
	C639.652222,403.769928 639.696716,413.429443 637.790710,423.220520 
	C632.569885,411.038818 628.168213,398.747742 622.763123,386.873688 
	C617.346008,374.973541 611.209595,363.481354 602.997803,352.706512 
	C603.832031,381.681305 598.111572,407.921387 575.007080,427.675995 
	C578.389343,414.572083 580.129944,401.400177 579.694580,387.928802 
	C579.253052,374.270477 575.671631,361.378296 571.045715,348.617828 
	C569.592896,364.902283 565.500977,380.081818 556.764465,393.965057 
	C548.056702,407.802612 536.486450,418.442719 522.584351,426.952271 
	C529.131348,401.076324 530.253479,375.221405 526.815796,349.074127 
	C526.007629,350.856445 525.503662,352.687195 525.057983,354.532013 
	C522.870972,363.585571 521.425903,372.828003 518.275085,381.636169 
	C513.322510,395.481354 508.172729,409.256348 497.078094,419.643829 
	C492.825806,423.625122 488.282196,427.312622 482.624023,429.419922 
	C486.358429,419.029907 490.286224,409.019958 491.852570,398.237671 
	C494.328339,381.194946 494.504822,369.697815 491.736359,366.063538 
	C487.037354,379.132568 480.345367,390.986725 472.838226,403.234100 
M443.945648,313.380463 
	C461.082977,305.722931 478.745544,299.413300 496.821838,293.273987 
	C495.158356,291.658905 493.511902,291.554596 491.928650,291.272400 
	C476.973267,288.606598 462.924133,283.609955 450.817841,274.223358 
	C434.585144,261.637390 424.132477,246.015610 425.623138,224.348267 
	C425.904572,220.257233 427.705078,216.536331 428.376923,211.926895 
	C414.761566,219.849380 408.280640,232.115311 403.944427,245.769638 
	C402.667419,245.358475 402.733368,244.636368 402.710358,244.023712 
	C402.097260,227.725662 408.017761,214.212936 421.009125,204.431168 
	C438.294128,191.416580 458.598022,186.802948 479.701538,186.047470 
	C514.851196,184.789139 546.544983,195.881836 575.777283,214.756638 
	C592.071960,225.277817 606.382690,238.302628 621.007263,250.927185 
	C622.684814,252.375351 624.205200,254.339050 627.475525,254.028458 
	C626.376160,252.233231 625.513611,250.693909 624.528015,249.237930 
	C620.292847,242.981812 617.061035,236.253128 614.935486,229.003708 
	C611.184692,216.211487 612.966125,211.233231 623.685425,204.431519 
	C623.553101,203.249329 622.513733,202.882767 621.721619,202.331070 
	C604.558838,190.377090 585.544189,182.456375 565.387390,177.411346 
	C533.753052,169.493576 501.607544,168.356674 469.208282,171.007965 
	C434.953766,173.811066 401.893097,181.430573 370.035126,194.390915 
	C366.139984,195.975525 364.266296,198.320511 363.358948,202.189316 
	C360.147247,215.883865 360.426788,229.735535 362.665619,243.381546 
	C367.559998,273.212891 379.187775,300.491547 395.943848,325.591827 
	C399.954620,331.599884 400.801422,331.853729 407.442261,329.073486 
	C419.423706,324.057465 431.314606,318.825195 443.945648,313.380463 
M732.771667,497.729645 
	C719.100708,483.639801 702.415894,476.846130 682.825867,475.981720 
	C657.503906,474.864380 633.485046,491.832245 625.969788,518.239441 
	C624.591003,523.084351 622.743530,523.342712 618.667908,522.031982 
	C607.491455,518.437622 596.103943,518.053650 584.717102,521.004333 
	C580.893555,521.995056 578.877991,520.972412 577.575317,517.159119 
	C572.638855,502.708679 563.632690,491.087646 551.768250,481.683075 
	C516.405518,453.652039 465.582703,462.405670 442.622894,500.374359 
	C440.324921,504.174530 438.339996,507.845612 440.682861,512.478394 
	C441.607910,514.307617 441.989868,516.646179 439.284302,518.201599 
	C436.488800,516.393188 434.980164,513.529480 432.900513,511.238434 
	C426.577362,504.272644 418.778290,502.103027 410.327057,505.120331 
	C402.753571,507.824249 398.368164,514.518799 398.100555,523.918518 
	C398.039032,526.079956 398.066254,528.262634 398.292328,530.410278 
	C399.247772,539.485413 402.511719,547.307922 411.256042,551.475769 
	C419.641602,555.472656 427.093903,553.322021 433.702301,547.205322 
	C434.758057,546.228149 435.932983,545.003845 437.886688,546.560120 
	C437.519897,550.675110 434.992798,553.841858 432.129486,556.526611 
	C429.648346,558.853088 429.411224,561.070251 430.353973,564.081116 
	C433.147736,573.003296 437.886200,580.768677 444.170105,587.579041 
	C460.292297,605.051941 480.903992,611.906555 504.072449,613.160339 
	C524.873840,614.286072 542.276184,607.150879 556.797363,592.630188 
	C564.355408,585.072266 570.571960,576.462036 576.270325,567.359802 
	C582.386719,557.589844 591.028137,551.265625 603.398499,551.575867 
	C614.715881,551.859741 621.800293,558.382507 627.240173,567.303162 
	C629.486328,570.986572 631.092102,575.056519 633.056824,578.916199 
	C646.067566,604.476318 666.656189,617.202271 695.587708,615.972534 
	C721.385681,614.875977 744.860229,596.399109 751.819763,571.544312 
	C752.175049,570.275635 752.901855,568.996338 752.071167,567.702942 
	C749.351257,563.467712 750.586731,559.082336 751.440369,554.678223 
	C752.227844,550.615845 753.983948,546.379456 753.437195,542.483032 
	C751.101379,525.835693 745.151978,510.629883 732.771667,497.729645 
M458.183197,263.320892 
	C468.823364,272.598907 481.017609,278.884399 494.852112,281.658325 
	C514.483948,285.594696 533.901184,284.972931 552.825867,277.828705 
	C557.190186,276.181122 561.300476,274.698547 564.647522,279.690369 
	C565.498657,280.959747 567.255066,281.431763 568.699402,280.473450 
	C570.374573,279.361969 569.591675,277.842194 568.864990,276.498474 
	C567.659058,274.268555 567.006348,272.057831 569.549622,270.341095 
	C571.973450,268.705017 574.566162,268.541626 577.006714,270.330383 
	C578.478027,271.408783 579.691406,272.853943 581.204468,273.857117 
	C583.536011,275.403015 586.278870,276.600800 588.188416,273.558319 
	C590.001770,270.669037 587.308350,269.548462 585.348328,268.275879 
	C583.953613,267.370300 582.326172,266.336395 583.148254,264.331482 
	C583.948486,262.379761 585.794189,261.957703 587.745789,262.123596 
	C589.547729,262.276794 591.166931,263.734131 593.058472,263.091736 
	C599.626343,260.861115 606.167847,258.553192 613.097229,256.143311 
	C612.216187,254.944061 611.743591,254.065613 611.057739,253.410217 
	C608.773376,251.227188 606.446594,249.085571 604.075623,246.996613 
	C585.487488,230.619232 565.570251,216.315811 542.579895,206.571793 
	C526.625610,199.809860 510.044312,195.521347 492.841064,194.692566 
	C478.682678,194.010498 464.546234,195.248642 451.637329,202.396759 
	C440.419525,208.608459 435.308990,219.736267 438.071014,232.236633 
	C440.860474,244.860931 448.400360,254.389130 458.183197,263.320892 
M379.437805,334.177277 
	C359.077057,327.156342 338.891754,324.751038 319.314301,336.625488 
	C309.278656,342.712494 301.420868,350.995575 295.666473,361.165344 
	C292.277649,367.154358 293.834259,370.309814 300.562500,372.115540 
	C303.933258,373.020203 307.339630,373.816620 310.763245,374.493011 
	C314.278534,375.187500 316.289520,374.418945 315.192413,370.075409 
	C313.931976,365.085388 313.071625,359.992065 312.111572,354.929565 
	C311.724304,352.887360 311.179901,350.776733 312.742584,348.108734 
	C320.928131,354.710785 325.376831,364.582001 334.434692,370.548737 
	C336.543945,364.774780 335.470581,359.583527 335.700531,354.512909 
	C335.936646,349.307770 335.070831,344.054321 336.029907,338.676605 
	C338.317993,339.604248 338.800598,341.467896 339.672485,343.003204 
	C343.454163,349.662231 347.206757,356.337708 350.986847,362.997620 
	C352.043915,364.860016 352.915924,367.470947 355.315094,367.360107 
	C358.081726,367.232269 358.497711,364.233521 359.265198,362.152740 
	C361.106140,357.161835 362.625153,352.053070 364.395874,347.034882 
	C364.961090,345.433075 364.991028,343.370941 367.562927,342.474426 
	C369.387146,346.379761 371.107452,350.286224 373.014130,354.099487 
	C377.397491,362.865784 381.705475,364.752930 391.290619,362.110962 
	C397.413544,360.423309 403.152161,357.759308 408.837708,354.966858 
	C436.957153,341.155945 463.578461,324.634644 491.016357,309.591400 
	C499.186249,305.112091 507.416565,300.743011 515.619202,296.323456 
	C507.589172,297.063965 500.162903,299.340027 492.788971,301.857178 
	C466.612213,310.792877 441.193146,321.619507 416.053131,333.066101 
	C404.064545,338.524689 392.408142,340.755646 379.437805,334.177277 
M772.734192,523.102051 
	C766.086060,525.946960 761.858093,531.126892 758.945312,537.524109 
	C758.011963,539.574036 755.893799,541.441406 756.884338,543.919617 
	C758.419250,547.759766 758.156677,551.740723 758.473450,555.703064 
	C759.088074,563.390320 763.335876,568.192078 770.859436,569.940125 
	C778.017883,571.603333 784.353394,569.148254 790.224548,565.510559 
	C801.618896,558.450745 806.531494,544.394043 801.660522,533.610657 
	C796.856201,522.974731 786.199280,518.884338 772.734192,523.102051 
M377.789215,510.745697 
	C364.982849,506.997345 351.860779,506.628845 338.699524,507.481110 
	C332.392883,507.889496 326.164093,509.273651 320.430847,512.155762 
	C315.644958,514.561707 315.620483,516.315918 319.720032,519.492065 
	C323.040436,522.064453 326.497406,523.286865 330.774445,523.023071 
	C338.790375,522.528625 346.709137,523.827271 354.569855,525.247742 
	C364.253754,526.997803 373.654205,529.728638 382.715332,533.644226 
	C387.081635,535.531067 387.956329,534.804016 388.046204,530.028687 
	C388.083740,528.035828 388.019775,526.025085 388.263733,524.054810 
	C389.394501,514.922058 389.369476,514.821289 380.934143,511.728149 
	C380.155090,511.442474 379.339417,511.256653 377.789215,510.745697 
M669.404785,247.289917 
	C670.702637,245.291061 668.846863,244.218857 667.981506,243.025085 
	C662.978027,236.122559 657.128967,229.948639 650.862671,224.205231 
	C645.553772,219.339310 639.656738,215.214722 632.737000,212.940308 
	C624.141174,210.115021 619.411743,214.465912 620.935547,223.306061 
	C622.756287,233.868668 628.393982,242.412598 634.745544,250.643661 
	C636.581116,253.022369 638.677979,253.245941 641.460266,251.710083 
	C639.818115,246.815994 636.953064,242.553375 636.529419,237.482147 
	C636.275024,234.437164 635.947388,231.258194 638.753296,229.255463 
	C641.666748,227.175995 644.827454,228.059418 647.747375,229.587433 
	C651.301819,231.447449 654.395203,233.951065 657.521667,236.465103 
	C661.662048,239.794525 664.255371,244.665451 669.404785,247.289917 
M286.442108,402.592499 
	C287.303345,406.693756 286.868500,411.275757 291.118195,414.755493 
	C299.070770,408.022125 306.983582,401.322449 315.437164,394.164886 
	C307.764374,394.233551 302.458466,398.842529 295.614075,401.907349 
	C298.029877,393.378357 304.153900,389.910858 310.715027,385.747955 
	C298.460419,384.628571 288.505035,391.659943 286.442108,402.592499 
M560.308777,834.260071 
	C562.536499,835.802185 564.229431,838.179688 567.248413,838.993713 
	C569.276917,835.183533 571.178284,831.612061 573.625366,827.015625 
	C567.656433,828.367920 562.791748,829.470032 558.072754,830.539124 
	C557.854919,832.468872 559.084351,832.977295 560.308777,834.260071 
M752.137329,446.978973 
	C753.783630,447.773926 755.564270,447.513214 755.408997,445.601624 
	C755.169861,442.658203 754.632812,439.482300 751.267212,437.642456 
	C749.414490,440.915710 751.093506,443.657562 752.137329,446.978973 
z"/>
<path fill="#000000" opacity="1.000000" stroke="none" 
	d="
M310.065948,540.884644 
	C316.937622,546.074402 322.480865,551.978149 326.375641,559.308777 
	C327.226868,560.910950 327.858917,562.640381 328.477631,564.352539 
	C329.173645,566.278564 329.843323,568.587219 327.576324,569.663086 
	C325.457123,570.668884 324.458710,568.455750 323.393097,567.032166 
	C319.630798,562.006042 318.037628,561.898010 314.108765,566.768982 
	C312.879547,568.292908 311.904144,570.111145 311.199951,571.943481 
	C310.512787,573.731506 310.320526,575.709656 309.891083,577.696716 
	C304.640411,573.524902 304.478790,567.157227 309.299744,561.073608 
	C314.417542,554.615417 314.412689,554.621460 307.885590,549.366943 
	C302.801849,545.274292 297.500488,541.527405 291.099365,539.795776 
	C283.853241,537.835327 279.639282,540.347473 277.452301,547.500427 
	C274.991638,555.548584 277.217041,563.297668 278.728271,571.103210 
	C279.061493,572.824219 280.137177,574.529358 278.778503,576.217041 
	C276.778992,576.835327 275.891235,575.452271 275.124023,574.219177 
	C269.191711,564.684021 266.272858,554.508972 269.229309,543.311829 
	C271.975250,532.911865 279.920258,528.597595 291.285248,531.167664 
	C298.256073,532.744019 304.182892,536.399231 310.065948,540.884644 
z"/>
<path fill="#000000" opacity="1.000000" stroke="none" 
	d="
M304.030548,585.195923 
	C304.263519,583.212402 305.204163,582.764221 306.412933,583.772278 
	C307.807343,584.935120 309.282013,586.181763 310.199402,587.706360 
	C315.086884,595.829224 322.327698,598.021729 331.648468,596.340515 
	C330.491089,594.133850 328.461945,593.022949 326.875122,591.509644 
	C322.816620,587.639099 320.022736,583.248413 321.826843,577.335266 
	C322.534393,575.016235 324.013702,572.785645 326.679535,573.103149 
	C329.743866,573.468140 328.477814,576.162720 328.308685,577.951721 
	C327.877747,582.510681 330.254944,585.648499 333.532745,588.120850 
	C337.511932,591.122192 341.821747,593.681396 345.867432,596.599670 
	C348.865204,598.762085 351.741699,601.131958 351.231476,605.498779 
	C350.913544,608.219543 349.739044,609.699890 346.956818,608.192505 
	C339.555969,604.182739 331.989136,602.895447 323.440125,604.084717 
	C316.894867,604.995178 312.003052,600.241028 308.242737,595.091370 
	C306.179321,592.265503 304.687042,589.074097 304.030548,585.195923 
z"/>
<path fill="#000000" opacity="1.000000" stroke="none" 
	d="
M614.587708,643.190918 
	C615.871094,644.061218 616.888306,644.656982 617.766602,645.414062 
	C620.157227,647.475037 621.502014,650.007263 619.181824,652.763000 
	C616.833557,655.552063 614.710815,653.412048 612.806458,651.791504 
	C605.851929,645.873169 597.918213,646.856567 590.041931,648.846436 
	C585.553589,649.980530 581.273865,651.948547 576.913147,653.575745 
	C574.300720,654.550598 571.388855,655.519592 570.064270,652.182373 
	C568.651550,648.623291 571.792969,647.673096 574.303345,646.749756 
	C581.329163,644.165405 588.365540,641.700989 595.807190,640.404663 
	C602.334717,639.267700 608.372192,640.243408 614.587708,643.190918 
z"/>
<path fill="#000000" opacity="1.000000" stroke="none" 
	d="
M283.278442,588.546021 
	C282.450012,586.889038 281.573059,585.446777 283.168549,584.241455 
	C284.250580,583.424011 285.413635,583.916077 286.339386,584.721436 
	C294.326904,591.670471 302.304138,598.631409 310.260529,605.616089 
	C310.860962,606.143188 311.445862,606.811462 310.871338,608.782227 
	C299.855621,604.504028 290.973694,597.692017 283.278442,588.546021 
z"/>
<path fill="#000000" opacity="1.000000" stroke="none" 
	d="
M359.523102,316.533905 
	C358.944885,316.438385 358.777252,316.434570 358.615295,316.402374 
	C356.163055,315.915436 352.048584,316.821167 351.993713,313.761963 
	C351.925110,309.937378 356.404572,312.758057 358.702728,311.066284 
	C358.071686,307.744690 355.251495,305.392517 353.975403,302.289764 
	C353.281525,300.602478 351.027710,298.552643 353.390167,297.052307 
	C355.785950,295.530762 356.781281,298.216400 357.732330,299.838684 
	C359.807434,303.378265 362.804413,306.462341 363.329926,310.795319 
	C363.570923,312.782501 365.387512,312.679932 366.655884,313.295166 
	C367.864105,313.881226 369.333710,314.448456 368.975983,316.076752 
	C368.533661,318.090546 366.815277,317.717529 365.330109,317.491455 
	C363.529327,317.217316 361.734009,316.907043 359.523102,316.533905 
z"/>
<path fill="#000000" opacity="1.000000" stroke="none" 
	d="
M238.909363,411.332764 
	C239.253265,413.377869 239.722885,415.360352 237.357285,415.632172 
	C235.581345,415.836212 234.875732,414.151031 234.516342,412.676208 
	C233.574738,408.812225 232.699432,404.930054 231.905746,401.033142 
	C231.635757,399.707550 231.690857,398.165375 233.332565,397.746613 
	C235.316345,397.240509 235.889069,398.788147 236.259811,400.306244 
	C237.124207,403.845734 237.947495,407.395203 238.909363,411.332764 
z"/>
<path fill="#000000" opacity="1.000000" stroke="none" 
	d="
M786.320801,293.563690 
	C789.647827,295.773651 792.688721,297.756989 795.633545,299.873779 
	C796.721741,300.655975 797.685547,301.875397 796.778564,303.262817 
	C795.833801,304.707977 794.431824,304.130737 793.275391,303.401581 
	C790.065674,301.377686 786.861755,299.340546 783.727234,297.203461 
	C782.412903,296.307343 780.456055,295.268402 781.382568,293.381805 
	C782.628967,290.843719 784.436157,292.798645 786.320801,293.563690 
z"/>
<path fill="#000000" opacity="1.000000" stroke="none" 
	d="
M782.809814,429.107849 
	C779.326721,430.264740 776.216370,431.353821 773.065613,432.309784 
	C771.604248,432.753174 769.913025,432.931061 769.312012,431.072296 
	C768.717712,429.234619 770.154358,428.345245 771.604614,427.853271 
	C774.879211,426.742340 778.179199,425.692841 781.510620,424.768585 
	C783.102844,424.326843 785.235840,422.782043 786.200073,425.313660 
	C787.111816,427.707458 784.722473,428.185852 782.809814,429.107849 
z"/>
<path fill="#000000" opacity="1.000000" stroke="none" 
	d="
M824.148682,337.834137 
	C822.364807,334.803497 820.740662,332.106567 819.179688,329.373596 
	C818.503479,328.189819 817.914856,326.783661 819.428772,325.888000 
	C820.798523,325.077637 822.078186,325.845703 822.828308,327.052490 
	C825.011719,330.565430 827.108887,334.133057 829.183838,337.711731 
	C829.969360,339.066498 830.495300,340.590393 828.747986,341.605804 
	C826.893738,342.683441 826.083740,341.180420 825.285278,339.898346 
	C824.935608,339.336945 824.649170,338.736176 824.148682,337.834137 
z"/>
<path fill="#000000" opacity="1.000000" stroke="none" 
	d="
M826.483093,398.883545 
	C824.102905,403.700745 820.156982,406.740845 816.562866,410.092041 
	C815.545227,411.040894 814.296082,411.607605 813.057922,410.431641 
	C811.980957,409.408722 812.368286,408.297211 813.247437,407.388580 
	C816.339478,404.192932 819.415344,400.977020 822.623535,397.900360 
	C823.981750,396.597778 825.550537,396.222931 826.483093,398.883545 
z"/>
<path fill="#000000" opacity="1.000000" stroke="none" 
	d="
M735.328735,276.016693 
	C736.710510,273.222290 738.786377,274.345825 740.637085,274.660950 
	C744.385498,275.299103 748.073486,276.202606 751.553162,277.786255 
	C752.501831,278.217987 753.225769,278.952271 753.018982,280.099121 
	C752.812744,281.242554 751.854065,281.935120 750.860962,281.641510 
	C745.616394,280.090698 739.654602,280.621155 735.328735,276.016693 
z"/>
<path fill="#000000" opacity="1.000000" stroke="none" 
	d="
M713.860718,274.843719 
	C712.008240,274.350800 710.304382,273.947876 710.864380,271.922607 
	C711.288147,270.390045 712.836914,270.286774 714.187134,270.427032 
	C718.131836,270.836823 722.078247,271.256348 726.002502,271.821472 
	C727.486755,272.035217 729.203491,272.693634 728.796936,274.591217 
	C728.401184,276.438141 726.613586,276.295959 725.095093,276.130341 
	C721.480286,275.736115 717.868042,275.318390 713.860718,274.843719 
z"/>
<path fill="#000000" opacity="1.000000" stroke="none" 
	d="
M830.687561,354.308167 
	C830.253662,351.903931 828.940857,349.872742 830.582153,347.990723 
	C832.924683,347.464386 833.407410,349.173096 833.890015,350.454926 
	C835.530762,354.812653 836.280640,359.364868 836.300415,364.022675 
	C836.306030,365.345764 836.309570,366.924438 834.587341,367.137543 
	C832.831604,367.354767 832.443909,365.771667 832.220032,364.500580 
	C831.648376,361.254333 831.237183,357.979797 830.687561,354.308167 
z"/>
<path fill="#000000" opacity="1.000000" stroke="none" 
	d="
M268.079163,384.900208 
	C268.986450,380.813873 269.780609,377.106384 270.744781,373.443634 
	C271.079773,372.171143 271.831055,370.801514 273.527344,371.404175 
	C274.834015,371.868408 274.862396,373.157532 274.639648,374.360443 
	C273.949402,378.088409 273.290863,381.823395 272.516846,385.534149 
	C272.208984,387.010193 272.621948,389.332886 270.164551,389.142090 
	C267.984802,388.972839 268.094910,386.953949 268.079163,384.900208 
z"/>
<path fill="#000000" opacity="1.000000" stroke="none" 
	d="
M315.455811,317.283325 
	C317.620483,316.633301 319.950409,314.973022 320.925903,317.734467 
	C321.769348,320.122253 319.017090,320.416870 317.543213,321.258301 
	C314.941071,322.743744 312.253571,324.078857 309.623993,325.517426 
	C308.082458,326.360748 306.463531,327.202820 305.328461,325.163025 
	C304.281799,323.282196 305.948151,322.457336 307.209412,321.731232 
	C309.805573,320.236572 312.475098,318.869415 315.455811,317.283325 
z"/>
<path fill="#000000" opacity="1.000000" stroke="none" 
	d="
M289.718292,336.825958 
	C292.189301,334.329529 294.368073,332.046417 296.704498,329.938019 
	C297.669647,329.067078 299.048462,328.309113 300.237183,329.636597 
	C301.683441,331.251740 300.293030,332.368988 299.268860,333.416687 
	C296.830994,335.910522 294.380157,338.394501 291.855164,340.799072 
	C290.737549,341.863403 289.627960,343.977051 287.811859,342.572174 
	C285.986511,341.160156 287.727631,339.617981 288.539856,338.261414 
	C288.792603,337.839294 289.169525,337.491516 289.718292,336.825958 
z"/>
<path fill="#000000" opacity="1.000000" stroke="none" 
	d="
M834.497437,383.278748 
	C833.713562,385.867706 833.130371,388.121613 831.693726,389.988129 
	C830.978760,390.916962 830.080933,391.830444 828.792053,390.986816 
	C827.836975,390.361664 827.874756,389.342804 828.184265,388.324066 
	C829.475220,384.074860 830.725098,379.812927 832.053101,375.575378 
	C832.413147,374.426666 833.106689,373.391357 834.559998,373.831024 
	C835.908997,374.239105 836.203674,375.485504 836.013245,376.645630 
	C835.667908,378.749207 835.092346,380.814972 834.497437,383.278748 
z"/>
<path fill="#000000" opacity="1.000000" stroke="none" 
	d="
M336.977844,251.178558 
	C339.885620,249.585281 340.397369,251.723434 340.817749,253.414230 
	C341.729675,257.081848 342.453857,260.799988 343.133850,264.519531 
	C343.394562,265.945343 343.702118,267.759399 341.694702,268.164886 
	C339.838776,268.539764 339.059326,266.970520 338.714874,265.508667 
	C337.627899,260.895905 335.998413,256.343323 336.977844,251.178558 
z"/>
<path fill="#000000" opacity="1.000000" stroke="none" 
	d="
M766.026367,282.865326 
	C768.755676,284.179382 771.171143,285.294586 773.507141,286.556854 
	C774.774902,287.241882 776.517822,287.999268 775.728760,289.861420 
	C774.941589,291.718964 773.285400,291.123566 771.870667,290.509216 
	C768.367798,288.987976 764.862305,287.470337 761.395874,285.868896 
	C760.214111,285.322937 758.716553,284.646606 759.145996,283.018860 
	C759.667908,281.040863 761.394775,281.414612 762.861938,281.743439 
	C763.826233,281.959564 764.741943,282.392090 766.026367,282.865326 
z"/>
<path fill="#000000" opacity="1.000000" stroke="none" 
	d="
M798.213989,417.226868 
	C800.562134,415.899506 802.555908,414.696960 804.627869,413.648743 
	C805.765381,413.073273 806.960876,413.237061 807.677063,414.438843 
	C808.467957,415.766083 807.653320,416.682373 806.600647,417.313477 
	C803.180420,419.364075 799.745178,421.392883 796.261963,423.333496 
	C794.955505,424.061340 793.292786,424.800568 792.302185,423.056000 
	C791.124207,420.981079 792.916687,420.130615 794.378113,419.306580 
	C795.536560,418.653351 796.719971,418.044586 798.213989,417.226868 
z"/>
<path fill="#000000" opacity="1.000000" stroke="none" 
	d="
M808.992859,310.971802 
	C811.181213,313.249420 813.166809,315.227051 815.005005,317.333313 
	C815.777405,318.218231 816.200073,319.417938 815.050171,320.412659 
	C813.658020,321.616913 812.623169,320.624146 811.648804,319.702301 
	C808.894165,317.096252 806.137817,314.491272 803.427185,311.839752 
	C802.252502,310.690735 800.666443,309.251984 802.031433,307.637939 
	C803.799072,305.547729 805.194885,307.716248 806.546692,308.715668 
	C807.337402,309.300201 808.006653,310.048920 808.992859,310.971802 
z"/>
<path fill="#000000" opacity="1.000000" stroke="none" 
	d="
M238.879135,426.981201 
	C238.475235,424.960510 236.851547,422.844086 239.254135,421.856171 
	C241.993423,420.729797 242.414169,423.500946 243.145203,425.155121 
	C244.406250,428.008667 245.408554,430.976410 246.523773,433.894562 
	C247.065353,435.311676 247.750305,436.911560 245.814514,437.670410 
	C243.976730,438.390747 243.150772,436.811523 242.530594,435.484650 
	C241.278427,432.805634 240.167831,430.060455 238.879135,426.981201 
z"/>
<path fill="#000000" opacity="1.000000" stroke="none" 
	d="
M276.533386,356.771973 
	C278.064697,353.986511 279.365326,351.508514 280.843323,349.141235 
	C281.458893,348.155273 282.516357,347.388092 283.782837,348.164124 
	C285.047302,348.938965 284.764008,350.152496 284.251434,351.225403 
	C282.549316,354.788055 280.831207,358.344788 279.020782,361.853027 
	C278.373779,363.106812 277.724548,364.942139 275.836761,364.200378 
	C273.959320,363.462616 274.729370,361.720184 275.118927,360.340179 
	C275.430115,359.237885 275.948059,358.193939 276.533386,356.771973 
z"/>
<path fill="#000000" opacity="1.000000" stroke="none" 
	d="
M276.575195,429.740295 
	C278.116913,431.024139 277.974548,432.246246 276.940155,433.377441 
	C274.474060,436.074249 271.963684,438.730988 269.448334,441.382202 
	C268.340820,442.549591 267.023102,443.383057 265.535553,442.149658 
	C263.952240,440.836945 264.662842,439.343994 265.858185,438.310516 
	C269.281219,435.351105 271.294586,430.690460 276.575195,429.740295 
z"/>
<path fill="#000000" opacity="1.000000" stroke="none" 
	d="
M344.249542,274.638367 
	C348.779510,278.290436 349.631195,283.617493 351.186798,288.528320 
	C351.664398,290.036072 350.513580,291.538208 348.471283,290.431946 
	C346.271362,289.240326 342.250488,277.694336 343.098663,275.170135 
	C343.176544,274.938385 343.632782,274.833740 344.249542,274.638367 
z"/>
<path fill="#000000" opacity="1.000000" stroke="none" 
	d="
M339.172455,229.576080 
	C338.815247,234.609467 340.237488,239.422424 338.237152,243.824860 
	C335.643311,243.571030 335.057190,242.092316 335.005096,240.605042 
	C334.871643,236.797775 334.914734,232.979889 335.034943,229.170914 
	C335.070740,228.036362 335.532990,226.701492 336.883484,226.523972 
	C338.723083,226.282135 338.870728,227.841660 339.172455,229.576080 
z"/>
<path fill="#000000" opacity="1.000000" stroke="none" 
	d="
M703.490295,273.504089 
	C695.142334,275.152679 688.619629,274.690399 686.346191,272.567993 
	C689.194519,270.132294 700.351501,268.876434 703.210327,270.696289 
	C704.204773,271.329346 704.417114,272.210754 703.490295,273.504089 
z"/>
<path fill="#000000" opacity="1.000000" stroke="none" 
	d="
M331.712524,316.550720 
	C329.802765,317.112244 328.093933,317.365814 327.536804,315.544403 
	C326.941406,313.597687 328.729797,313.105804 330.163818,312.690582 
	C334.000000,311.579803 337.927979,311.008148 341.917908,311.135406 
	C343.204926,311.176453 344.785248,311.487091 344.793793,313.222443 
	C344.802368,314.961365 343.296082,315.147156 341.949463,315.306061 
	C338.668518,315.693207 335.386871,316.074829 331.712524,316.550720 
z"/>
<path fill="#000000" opacity="1.000000" stroke="none" 
	d="
M230.996979,373.648743 
	C233.782669,375.846649 235.620300,387.749451 233.849365,390.011993 
	C233.511536,390.443604 232.774399,390.799377 232.232040,390.785309 
	C231.069168,390.755005 230.490677,389.758514 230.374695,388.795563 
	C229.771835,383.790466 228.722900,378.761230 230.996979,373.648743 
z"/>
<path fill="#000000" opacity="1.000000" stroke="none" 
	d="
M230.595245,358.625488 
	C230.812500,354.945465 231.366608,351.786957 232.521194,348.516113 
	C235.786392,351.083466 235.220688,362.081177 231.912048,366.187622 
	C229.254547,364.163025 230.190018,361.538879 230.595245,358.625488 
z"/>
<path fill="#000000" opacity="1.000000" stroke="none" 
	d="
M275.475891,425.539551 
	C273.015472,421.946075 270.645294,418.677185 271.445282,413.245026 
	C276.163666,416.242828 278.512115,419.793091 279.171722,424.194122 
	C279.539917,426.651031 277.898926,427.412292 275.475891,425.539551 
z"/>
<path fill="#000000" opacity="1.000000" stroke="none" 
	d="
M272.278503,401.944336 
	C271.803192,404.366882 273.639618,407.899902 270.304565,407.930115 
	C267.495209,407.955627 268.181366,404.425385 267.738800,402.287292 
	C267.705902,402.128326 267.694855,401.953400 267.723358,401.794800 
	C268.123322,399.568146 266.444122,395.784027 269.678802,395.599640 
	C272.976379,395.411591 271.854126,399.259949 272.278503,401.944336 
z"/>
<path fill="#000000" opacity="1.000000" stroke="none" 
	d="
M234.625351,337.519043 
	C235.816544,334.378418 235.937317,331.140533 239.175812,327.928986 
	C239.012680,333.477692 237.798355,337.493927 235.895950,341.429932 
	C233.306961,340.791138 234.431610,339.174805 234.625351,337.519043 
z"/>
<path fill="#000000" opacity="1.000000" stroke="none" 
	d="
M485.242401,445.448669 
	C469.161438,446.335449 454.045135,449.558624 438.591736,456.713928 
	C455.932404,429.439301 525.844238,428.721527 545.080627,455.478668 
	C525.066956,448.821228 505.573822,445.851837 485.242401,445.448669 
z"/>
<path fill="#000000" opacity="1.000000" stroke="none" 
	d="
M675.996948,443.677551 
	C690.769104,443.600159 703.473145,447.221497 712.582031,459.184448 
	C713.486755,460.372559 714.291138,461.641510 715.079163,462.911987 
	C715.411682,463.447968 715.581055,464.085205 715.523071,465.413422 
	C703.174988,458.097809 690.199646,453.769806 675.780640,453.854340 
	C661.575562,453.937622 647.795776,456.916656 633.675964,458.400360 
	C645.540222,447.629303 659.914490,443.957825 675.996948,443.677551 
z"/>
<path fill="#000000" opacity="1.000000" stroke="none" 
	d="
M541.691650,588.829346 
	C503.311707,608.877319 456.626221,584.613342 450.533539,541.802002 
	C445.635345,507.383850 472.770203,475.419067 507.187805,475.063446 
	C539.300781,474.731689 567.207397,502.110168 568.492981,534.192688 
	C569.235291,552.718994 564.478699,568.646057 551.199524,581.811035 
	C548.445923,584.540955 545.343994,586.729614 541.691650,588.829346 
M494.781555,488.755981 
	C484.584656,491.145599 476.188660,496.111511 471.414886,505.814117 
	C467.656921,513.452148 472.297821,521.047729 480.665710,520.609131 
	C490.066162,520.116455 497.667847,515.719360 502.394073,507.487579 
	C507.103058,499.285828 503.540466,490.157288 494.781555,488.755981 
z"/>
<path fill="#000000" opacity="1.000000" stroke="none" 
	d="
M739.160706,561.824524 
	C732.714905,586.186157 709.362610,602.121460 685.175720,600.120605 
	C659.964355,598.034973 640.797058,578.909180 635.905396,554.071594 
	C631.940247,533.938599 635.827087,515.095642 650.335083,499.791077 
	C669.133179,479.960815 697.743225,480.338318 717.828796,496.512817 
	C738.657593,513.285828 744.818665,535.589600 739.160706,561.824524 
M665.878357,500.311249 
	C660.926147,503.234070 656.705322,506.904144 653.936707,512.045898 
	C652.018860,515.607605 651.291016,519.199524 653.634766,522.897217 
	C656.147827,526.861938 659.849670,528.379028 664.327148,527.726685 
	C671.873230,526.627258 678.236328,523.316040 682.652100,516.885254 
	C685.650635,512.518250 685.814636,503.248199 683.073059,499.807404 
	C680.279419,496.301361 675.117493,496.038025 668.314819,499.063843 
	C667.708130,499.333679 667.123535,499.653137 665.878357,500.311249 
z"/>
<path fill="#000000" opacity="1.000000" stroke="none" 
	d="
M448.753540,569.217163 
	C451.544983,572.983154 454.140076,576.440674 456.739624,579.894897 
	C458.487915,582.218079 459.445496,584.791870 457.019104,587.025879 
	C454.783813,589.083984 452.037354,588.142578 450.236389,586.334167 
	C444.560699,580.635315 439.896729,574.154358 437.071564,566.549072 
	C436.093933,563.917419 436.922791,561.466797 439.608856,560.276062 
	C442.173157,559.139282 444.187958,560.454895 445.484924,562.643250 
	C446.667114,564.637939 447.546295,566.812134 448.753540,569.217163 
z"/>
<path fill="#000000" opacity="1.000000" stroke="none" 
	d="
M710.390503,607.317017 
	C709.566589,606.132507 709.428284,605.124634 709.890564,604.185242 
	C710.870850,602.193176 723.184937,596.324402 725.338806,596.773926 
	C727.606567,597.247131 727.869019,598.697388 726.973083,600.508606 
	C724.871887,604.756531 715.474548,608.799866 710.390503,607.317017 
z"/>
<path fill="#000000" opacity="1.000000" stroke="none" 
	d="
M737.173462,581.178589 
	C738.019348,579.908508 738.631165,578.917236 739.299988,577.965942 
	C740.332886,576.497131 741.316223,574.363586 743.475464,575.332214 
	C745.692444,576.326843 745.471924,578.552979 744.718811,580.561829 
	C743.102112,584.874695 740.360046,588.365784 736.774414,591.216980 
	C735.827332,591.970032 734.791748,592.569946 733.602722,591.809998 
	C732.216431,590.923889 732.183594,589.463806 732.812988,588.270447 
	C734.048950,585.927307 735.564880,583.731873 737.173462,581.178589 
z"/>
<path fill="#000000" opacity="1.000000" stroke="none" 
	d="
M468.768921,592.801147 
	C472.076080,594.411316 475.005127,595.937439 477.879822,597.559875 
	C479.072021,598.232788 480.109161,599.209534 479.431610,600.766724 
	C478.799042,602.220703 477.402130,602.500488 476.059204,602.149780 
	C472.669586,601.264648 469.379913,599.973328 466.961700,597.362366 
	C465.106354,595.359131 465.164124,593.455322 468.768921,592.801147 
z"/>
<path fill="#000000" opacity="1.000000" stroke="none" 
	d="
M554.974976,220.979095 
	C560.306519,225.114090 564.791016,229.556122 567.768005,235.285782 
	C573.413635,246.151505 569.843018,255.686737 558.695007,260.577545 
	C551.868286,263.572540 544.744263,263.858582 537.611206,263.277222 
	C519.443726,261.796600 503.374756,255.364777 490.433014,242.105377 
	C488.083771,239.698471 486.287201,236.902435 484.707642,233.955246 
	C479.498169,224.235336 482.032745,215.242035 491.651611,209.820679 
	C500.412415,204.882950 509.814270,205.155685 519.359619,206.640518 
	C532.229492,208.642502 544.126160,213.023575 554.974976,220.979095 
M520.068787,231.550171 
	C521.176086,231.884979 522.264648,232.403305 523.394409,232.518906 
	C526.339050,232.820267 529.298218,232.364395 530.696289,229.487488 
	C532.271240,226.246384 529.711609,224.298294 527.561218,222.445999 
	C525.760925,220.895248 523.574646,219.974701 521.303101,219.568863 
	C518.103455,218.997192 514.628174,218.991501 513.100525,222.474487 
	C511.571075,225.961685 514.523010,227.852219 516.832092,229.713898 
	C517.596741,230.330399 518.528931,230.739075 520.068787,231.550171 
z"/>
</svg>